<mxfile host="65bd71144e">
    <diagram id="I3bgbLCInCtjtluF-sNv" name="Page-1">
        <mxGraphModel dx="1658" dy="1711" grid="1" gridSize="10" guides="1" tooltips="1" connect="1" arrows="1" fold="1" page="1" pageScale="1" pageWidth="850" pageHeight="1100" math="0" shadow="0">
            <root>
                <mxCell id="0"/>
                <mxCell id="1" parent="0"/>
                <mxCell id="4" value="user" style="swimlane;fontStyle=0;childLayout=stackLayout;horizontal=1;startSize=30;horizontalStack=0;resizeParent=1;resizeParentMax=0;resizeLast=0;collapsible=1;marginBottom=0;whiteSpace=wrap;html=1;" parent="1" vertex="1">
                    <mxGeometry x="120" y="60" width="600" height="310" as="geometry"/>
                </mxCell>
                <mxCell id="5" value="&amp;nbsp;id INT PRIMARY KEY AUTO_INCREMENT" style="text;strokeColor=none;fillColor=none;align=left;verticalAlign=middle;spacingLeft=4;spacingRight=4;overflow=hidden;points=[[0,0.5],[1,0.5]];portConstraint=eastwest;rotatable=0;whiteSpace=wrap;html=1;" parent="4" vertex="1">
                    <mxGeometry y="30" width="600" height="30" as="geometry"/>
                </mxCell>
                <mxCell id="6" value="first_name VARCHAR(255) NOT NULL" style="text;strokeColor=none;fillColor=none;align=left;verticalAlign=middle;spacingLeft=4;spacingRight=4;overflow=hidden;points=[[0,0.5],[1,0.5]];portConstraint=eastwest;rotatable=0;whiteSpace=wrap;html=1;" parent="4" vertex="1">
                    <mxGeometry y="60" width="600" height="30" as="geometry"/>
                </mxCell>
                <mxCell id="7" value="last_name VARCHAR(255) NOT NULL" style="text;strokeColor=none;fillColor=none;align=left;verticalAlign=middle;spacingLeft=4;spacingRight=4;overflow=hidden;points=[[0,0.5],[1,0.5]];portConstraint=eastwest;rotatable=0;whiteSpace=wrap;html=1;" parent="4" vertex="1">
                    <mxGeometry y="90" width="600" height="30" as="geometry"/>
                </mxCell>
                <mxCell id="9" value="email VARCHAR(255) UNIQUE NOT NULL" style="text;strokeColor=none;fillColor=none;align=left;verticalAlign=middle;spacingLeft=4;spacingRight=4;overflow=hidden;points=[[0,0.5],[1,0.5]];portConstraint=eastwest;rotatable=0;whiteSpace=wrap;html=1;" parent="4" vertex="1">
                    <mxGeometry y="120" width="600" height="30" as="geometry"/>
                </mxCell>
                <mxCell id="10" value="password VARCHAR(255) NOT NULL" style="text;strokeColor=none;fillColor=none;align=left;verticalAlign=middle;spacingLeft=4;spacingRight=4;overflow=hidden;points=[[0,0.5],[1,0.5]];portConstraint=eastwest;rotatable=0;whiteSpace=wrap;html=1;" parent="4" vertex="1">
                    <mxGeometry y="150" width="600" height="30" as="geometry"/>
                </mxCell>
                <mxCell id="11" value="profile_image_link VARCHAR(255) DEFAULT NULL" style="text;strokeColor=none;fillColor=none;align=left;verticalAlign=middle;spacingLeft=4;spacingRight=4;overflow=hidden;points=[[0,0.5],[1,0.5]];portConstraint=eastwest;rotatable=0;whiteSpace=wrap;html=1;" parent="4" vertex="1">
                    <mxGeometry y="180" width="600" height="30" as="geometry"/>
                </mxCell>
                <mxCell id="14" value="contact VARCHAR(30) UNIQUE NOT NULL" style="text;strokeColor=none;fillColor=none;align=left;verticalAlign=middle;spacingLeft=4;spacingRight=4;overflow=hidden;points=[[0,0.5],[1,0.5]];portConstraint=eastwest;rotatable=0;whiteSpace=wrap;html=1;" parent="4" vertex="1">
                    <mxGeometry y="210" width="600" height="30" as="geometry"/>
                </mxCell>
                <mxCell id="13" value="created_at DATETIME NOT NULL DEFAULT CURRENT_TIMESTAMP" style="text;strokeColor=none;fillColor=none;align=left;verticalAlign=middle;spacingLeft=4;spacingRight=4;overflow=hidden;points=[[0,0.5],[1,0.5]];portConstraint=eastwest;rotatable=0;whiteSpace=wrap;html=1;" parent="4" vertex="1">
                    <mxGeometry y="240" width="600" height="30" as="geometry"/>
                </mxCell>
                <mxCell id="12" value="updated_at DATETIME NOT NULL DEFAULT CURRENT_TIMESTAMP ON UPDATE CURRENT_TIMESTAMP" style="text;strokeColor=none;fillColor=none;align=left;verticalAlign=middle;spacingLeft=4;spacingRight=4;overflow=hidden;points=[[0,0.5],[1,0.5]];portConstraint=eastwest;rotatable=0;whiteSpace=wrap;html=1;" parent="4" vertex="1">
                    <mxGeometry y="270" width="600" height="40" as="geometry"/>
                </mxCell>
                <mxCell id="15" value="user_address" style="swimlane;fontStyle=0;childLayout=stackLayout;horizontal=1;startSize=30;horizontalStack=0;resizeParent=1;resizeParentMax=0;resizeLast=0;collapsible=1;marginBottom=0;whiteSpace=wrap;html=1;" parent="1" vertex="1">
                    <mxGeometry x="-310" y="60" width="270" height="240" as="geometry"/>
                </mxCell>
                <mxCell id="16" value="user_id INT PRIMARY KEY" style="text;strokeColor=none;fillColor=none;align=left;verticalAlign=middle;spacingLeft=4;spacingRight=4;overflow=hidden;points=[[0,0.5],[1,0.5]];portConstraint=eastwest;rotatable=0;whiteSpace=wrap;html=1;" parent="15" vertex="1">
                    <mxGeometry y="30" width="270" height="30" as="geometry"/>
                </mxCell>
                <mxCell id="17" value="house_no VARCHAR(20) DEFAULT NULL" style="text;strokeColor=none;fillColor=none;align=left;verticalAlign=middle;spacingLeft=4;spacingRight=4;overflow=hidden;points=[[0,0.5],[1,0.5]];portConstraint=eastwest;rotatable=0;whiteSpace=wrap;html=1;" parent="15" vertex="1">
                    <mxGeometry y="60" width="270" height="30" as="geometry"/>
                </mxCell>
                <mxCell id="18" value="street VARCHAR(255) NOT NULL" style="text;strokeColor=none;fillColor=none;align=left;verticalAlign=middle;spacingLeft=4;spacingRight=4;overflow=hidden;points=[[0,0.5],[1,0.5]];portConstraint=eastwest;rotatable=0;whiteSpace=wrap;html=1;" parent="15" vertex="1">
                    <mxGeometry y="90" width="270" height="30" as="geometry"/>
                </mxCell>
                <mxCell id="22" value="city VARCHAR(255) NOT NULL" style="text;strokeColor=none;fillColor=none;align=left;verticalAlign=middle;spacingLeft=4;spacingRight=4;overflow=hidden;points=[[0,0.5],[1,0.5]];portConstraint=eastwest;rotatable=0;whiteSpace=wrap;html=1;" parent="15" vertex="1">
                    <mxGeometry y="120" width="270" height="30" as="geometry"/>
                </mxCell>
                <mxCell id="21" value="state_province VARCHAR(255) NOT NULL" style="text;strokeColor=none;fillColor=none;align=left;verticalAlign=middle;spacingLeft=4;spacingRight=4;overflow=hidden;points=[[0,0.5],[1,0.5]];portConstraint=eastwest;rotatable=0;whiteSpace=wrap;html=1;" parent="15" vertex="1">
                    <mxGeometry y="150" width="270" height="30" as="geometry"/>
                </mxCell>
                <mxCell id="20" value="postal_code VARCHAR(20) NOT NULL" style="text;strokeColor=none;fillColor=none;align=left;verticalAlign=middle;spacingLeft=4;spacingRight=4;overflow=hidden;points=[[0,0.5],[1,0.5]];portConstraint=eastwest;rotatable=0;whiteSpace=wrap;html=1;" parent="15" vertex="1">
                    <mxGeometry y="180" width="270" height="30" as="geometry"/>
                </mxCell>
                <mxCell id="19" value="country VARCHAR(255) NOT NULL" style="text;strokeColor=none;fillColor=none;align=left;verticalAlign=middle;spacingLeft=4;spacingRight=4;overflow=hidden;points=[[0,0.5],[1,0.5]];portConstraint=eastwest;rotatable=0;whiteSpace=wrap;html=1;" parent="15" vertex="1">
                    <mxGeometry y="210" width="270" height="30" as="geometry"/>
                </mxCell>
                <mxCell id="24" style="edgeStyle=none;html=1;entryX=0;entryY=0.5;entryDx=0;entryDy=0;exitX=1;exitY=0.5;exitDx=0;exitDy=0;" parent="1" source="16" target="5" edge="1">
                    <mxGeometry relative="1" as="geometry"/>
                </mxCell>
                <mxCell id="25" value="product" style="swimlane;fontStyle=0;childLayout=stackLayout;horizontal=1;startSize=30;horizontalStack=0;resizeParent=1;resizeParentMax=0;resizeLast=0;collapsible=1;marginBottom=0;whiteSpace=wrap;html=1;" parent="1" vertex="1">
                    <mxGeometry x="540" y="-180" width="270" height="150" as="geometry"/>
                </mxCell>
                <mxCell id="26" value="id INT PRIMARY KEY AUTO_INCREMENT" style="text;strokeColor=none;fillColor=none;align=left;verticalAlign=middle;spacingLeft=4;spacingRight=4;overflow=hidden;points=[[0,0.5],[1,0.5]];portConstraint=eastwest;rotatable=0;whiteSpace=wrap;html=1;" parent="25" vertex="1">
                    <mxGeometry y="30" width="270" height="30" as="geometry"/>
                </mxCell>
                <mxCell id="27" value="name VARCHAR(255) UNIQUE NOT NULL" style="text;strokeColor=none;fillColor=none;align=left;verticalAlign=middle;spacingLeft=4;spacingRight=4;overflow=hidden;points=[[0,0.5],[1,0.5]];portConstraint=eastwest;rotatable=0;whiteSpace=wrap;html=1;" parent="25" vertex="1">
                    <mxGeometry y="60" width="270" height="30" as="geometry"/>
                </mxCell>
                <mxCell id="28" value="description TEXT DEFAULT NULL" style="text;strokeColor=none;fillColor=none;align=left;verticalAlign=middle;spacingLeft=4;spacingRight=4;overflow=hidden;points=[[0,0.5],[1,0.5]];portConstraint=eastwest;rotatable=0;whiteSpace=wrap;html=1;" parent="25" vertex="1">
                    <mxGeometry y="90" width="270" height="30" as="geometry"/>
                </mxCell>
                <mxCell id="29" value="&amp;nbsp;price INT NOT NULL" style="text;strokeColor=none;fillColor=none;align=left;verticalAlign=middle;spacingLeft=4;spacingRight=4;overflow=hidden;points=[[0,0.5],[1,0.5]];portConstraint=eastwest;rotatable=0;whiteSpace=wrap;html=1;" parent="25" vertex="1">
                    <mxGeometry y="120" width="270" height="30" as="geometry"/>
                </mxCell>
                <mxCell id="30" value="prudct_image" style="swimlane;fontStyle=0;childLayout=stackLayout;horizontal=1;startSize=30;horizontalStack=0;resizeParent=1;resizeParentMax=0;resizeLast=0;collapsible=1;marginBottom=0;whiteSpace=wrap;html=1;" parent="1" vertex="1">
                    <mxGeometry x="130" y="-180" width="270" height="120" as="geometry"/>
                </mxCell>
                <mxCell id="31" value="id INT PRIMARY KEY AUTO_INCREMENT" style="text;strokeColor=none;fillColor=none;align=left;verticalAlign=middle;spacingLeft=4;spacingRight=4;overflow=hidden;points=[[0,0.5],[1,0.5]];portConstraint=eastwest;rotatable=0;whiteSpace=wrap;html=1;" parent="30" vertex="1">
                    <mxGeometry y="30" width="270" height="30" as="geometry"/>
                </mxCell>
                <mxCell id="32" value="product_id INT NOT NULL" style="text;strokeColor=none;fillColor=none;align=left;verticalAlign=middle;spacingLeft=4;spacingRight=4;overflow=hidden;points=[[0,0.5],[1,0.5]];portConstraint=eastwest;rotatable=0;whiteSpace=wrap;html=1;" parent="30" vertex="1">
                    <mxGeometry y="60" width="270" height="30" as="geometry"/>
                </mxCell>
                <mxCell id="33" value="image_link VARCHAR(255) NOT NULL" style="text;strokeColor=none;fillColor=none;align=left;verticalAlign=middle;spacingLeft=4;spacingRight=4;overflow=hidden;points=[[0,0.5],[1,0.5]];portConstraint=eastwest;rotatable=0;whiteSpace=wrap;html=1;" parent="30" vertex="1">
                    <mxGeometry y="90" width="270" height="30" as="geometry"/>
                </mxCell>
                <mxCell id="35" style="edgeStyle=none;html=1;exitX=1;exitY=0.5;exitDx=0;exitDy=0;entryX=0;entryY=0.5;entryDx=0;entryDy=0;" parent="1" source="31" target="26" edge="1">
                    <mxGeometry relative="1" as="geometry"/>
                </mxCell>
                <mxCell id="36" value="orders" style="swimlane;fontStyle=0;childLayout=stackLayout;horizontal=1;startSize=30;horizontalStack=0;resizeParent=1;resizeParentMax=0;resizeLast=0;collapsible=1;marginBottom=0;whiteSpace=wrap;html=1;" parent="1" vertex="1">
                    <mxGeometry x="1020" y="220" width="330" height="150" as="geometry"/>
                </mxCell>
                <mxCell id="37" value="id INT PRIMARY KEY AUTO_INCREMENT" style="text;strokeColor=none;fillColor=none;align=left;verticalAlign=middle;spacingLeft=4;spacingRight=4;overflow=hidden;points=[[0,0.5],[1,0.5]];portConstraint=eastwest;rotatable=0;whiteSpace=wrap;html=1;" parent="36" vertex="1">
                    <mxGeometry y="30" width="330" height="30" as="geometry"/>
                </mxCell>
                <mxCell id="38" value="user_id INT NOT NULL" style="text;strokeColor=none;fillColor=none;align=left;verticalAlign=middle;spacingLeft=4;spacingRight=4;overflow=hidden;points=[[0,0.5],[1,0.5]];portConstraint=eastwest;rotatable=0;whiteSpace=wrap;html=1;" parent="36" vertex="1">
                    <mxGeometry y="60" width="330" height="30" as="geometry"/>
                </mxCell>
                <mxCell id="39" value="created_at DATETIME DEFAULT CURRENT_TIMESTAMP" style="text;strokeColor=none;fillColor=none;align=left;verticalAlign=middle;spacingLeft=4;spacingRight=4;overflow=hidden;points=[[0,0.5],[1,0.5]];portConstraint=eastwest;rotatable=0;whiteSpace=wrap;html=1;" parent="36" vertex="1">
                    <mxGeometry y="90" width="330" height="30" as="geometry"/>
                </mxCell>
                <mxCell id="40" value="status VARCHAR(50) DEFAULT &#39;pending&#39;" style="text;strokeColor=none;fillColor=none;align=left;verticalAlign=middle;spacingLeft=4;spacingRight=4;overflow=hidden;points=[[0,0.5],[1,0.5]];portConstraint=eastwest;rotatable=0;whiteSpace=wrap;html=1;" parent="36" vertex="1">
                    <mxGeometry y="120" width="330" height="30" as="geometry"/>
                </mxCell>
                <mxCell id="41" style="edgeStyle=none;html=1;exitX=0;exitY=0.5;exitDx=0;exitDy=0;entryX=1;entryY=0.5;entryDx=0;entryDy=0;" parent="1" source="38" target="5" edge="1">
                    <mxGeometry relative="1" as="geometry">
                        <Array as="points">
                            <mxPoint x="930" y="295"/>
                            <mxPoint x="810" y="105"/>
                        </Array>
                    </mxGeometry>
                </mxCell>
                <mxCell id="42" value="order_item" style="swimlane;fontStyle=0;childLayout=stackLayout;horizontal=1;startSize=30;horizontalStack=0;resizeParent=1;resizeParentMax=0;resizeLast=0;collapsible=1;marginBottom=0;whiteSpace=wrap;html=1;" parent="1" vertex="1">
                    <mxGeometry x="1000" y="-180" width="260" height="150" as="geometry"/>
                </mxCell>
                <mxCell id="43" value="id INT PRIMARY KEY AUTO_INCREMENT" style="text;strokeColor=none;fillColor=none;align=left;verticalAlign=middle;spacingLeft=4;spacingRight=4;overflow=hidden;points=[[0,0.5],[1,0.5]];portConstraint=eastwest;rotatable=0;whiteSpace=wrap;html=1;" parent="42" vertex="1">
                    <mxGeometry y="30" width="260" height="30" as="geometry"/>
                </mxCell>
                <mxCell id="44" value="order_id INT NOT NULL" style="text;strokeColor=none;fillColor=none;align=left;verticalAlign=middle;spacingLeft=4;spacingRight=4;overflow=hidden;points=[[0,0.5],[1,0.5]];portConstraint=eastwest;rotatable=0;whiteSpace=wrap;html=1;" parent="42" vertex="1">
                    <mxGeometry y="60" width="260" height="30" as="geometry"/>
                </mxCell>
                <mxCell id="45" value="product_id INT NOT NULL" style="text;strokeColor=none;fillColor=none;align=left;verticalAlign=middle;spacingLeft=4;spacingRight=4;overflow=hidden;points=[[0,0.5],[1,0.5]];portConstraint=eastwest;rotatable=0;whiteSpace=wrap;html=1;" parent="42" vertex="1">
                    <mxGeometry y="90" width="260" height="30" as="geometry"/>
                </mxCell>
                <mxCell id="46" value="quantity INT NOT NULL DEFAULT 1" style="text;strokeColor=none;fillColor=none;align=left;verticalAlign=middle;spacingLeft=4;spacingRight=4;overflow=hidden;points=[[0,0.5],[1,0.5]];portConstraint=eastwest;rotatable=0;whiteSpace=wrap;html=1;" parent="42" vertex="1">
                    <mxGeometry y="120" width="260" height="30" as="geometry"/>
                </mxCell>
                <mxCell id="47" style="edgeStyle=none;html=1;exitX=0;exitY=0.5;exitDx=0;exitDy=0;entryX=1;entryY=0.5;entryDx=0;entryDy=0;" parent="1" source="45" target="26" edge="1">
                    <mxGeometry relative="1" as="geometry">
                        <Array as="points">
                            <mxPoint x="950" y="-75"/>
                            <mxPoint x="870" y="-135"/>
                        </Array>
                    </mxGeometry>
                </mxCell>
                <mxCell id="48" style="edgeStyle=none;html=1;exitX=1;exitY=0.5;exitDx=0;exitDy=0;entryX=1;entryY=0.5;entryDx=0;entryDy=0;" parent="1" source="44" target="37" edge="1">
                    <mxGeometry relative="1" as="geometry">
                        <Array as="points">
                            <mxPoint x="1430" y="-105"/>
                            <mxPoint x="1430" y="265"/>
                        </Array>
                    </mxGeometry>
                </mxCell>
            </root>
        </mxGraphModel>
    </diagram>
</mxfile>